HIERARCHY
ROOT root
{
	OFFSET	0	13.1	24.9
	CHANNELS 6  Xposition Yposition Zposition Xrotation Yrotation Zrotation
	JOINT spine_1
	{
		OFFSET	0	9.99999	0
		CHANNELS 3  Xrotation Yrotation Zrotation
		JOINT spine_2
		{
			OFFSET	0	112	-10
			CHANNELS 3  Xrotation Yrotation Zrotation
			JOINT spine_3
			{
				OFFSET	0	206.5	19.3
				CHANNELS 3  Xrotation Yrotation Zrotation
				JOINT spine_4
				{
					OFFSET	0	110.4	14.6
					CHANNELS 3  Xrotation Yrotation Zrotation
					JOINT neck_1
					{
						OFFSET	0	71.8	-50.3
						CHANNELS 3  Xrotation Yrotation Zrotation
						JOINT neck_2
						{
							OFFSET	0	86.2	-25.8
							CHANNELS 3  Xrotation Yrotation Zrotation
							JOINT head_ee
							{
								OFFSET	0	179.8	-8.7
								CHANNELS 3  Xrotation Yrotation Zrotation
								End Site
								{
									OFFSET	1	0	0
								}
							}
						}
					}
					JOINT left_clavicle
					{
						OFFSET	-43.2	22.4	-70.8
						CHANNELS 3  Xrotation Yrotation Zrotation
						JOINT left_shoulder
						{
							OFFSET	-93.9	-5.79999	48.7
							CHANNELS 3  Xrotation Yrotation Zrotation
							JOINT left_elbow
							{
								OFFSET	-291.4	-30.8	15.2
								CHANNELS 3  Xrotation Yrotation Zrotation
								JOINT left_lowarm_twist
								{
									OFFSET	-110.7	-3.89999	13.6
									CHANNELS 3  Xrotation Yrotation Zrotation
									JOINT left_hand
									{
										OFFSET	-110.7	-3.89999	13.6
										CHANNELS 3  Xrotation Yrotation Zrotation
										JOINT left_ee
										{
											OFFSET	-80.8	-5.10001	12.1
											CHANNELS 3  Xrotation Yrotation Zrotation
											End Site
											{
												OFFSET	1	0	0
											}
										}
									}
								}
							}
						}
					}
					JOINT right_clavicle
					{
						OFFSET	43.2	22.4	-70.8
						CHANNELS 3  Xrotation Yrotation Zrotation
						JOINT right_shoulder
						{
							OFFSET	93.9	-5.79999	48.7
							CHANNELS 3  Xrotation Yrotation Zrotation
							JOINT right_elbow
							{
								OFFSET	291.4	-30.8	15.2
								CHANNELS 3  Xrotation Yrotation Zrotation
								JOINT right_lowarm_twist
								{
									OFFSET	110.7	-3.89999	13.6
									CHANNELS 3  Xrotation Yrotation Zrotation
									JOINT right_hand
									{
										OFFSET	110.7	-3.89999	13.6
										CHANNELS 3  Xrotation Yrotation Zrotation
										JOINT right_ee
										{
											OFFSET	80.8	-5.10001	12.1
											CHANNELS 3  Xrotation Yrotation Zrotation
											End Site
											{
												OFFSET	1	0	0
											}
										}
									}
								}
							}
						}
					}
				}
			}
		}
	}
	JOINT left_hip
	{
		OFFSET	-82.8	-127.5	0.300001
		CHANNELS 3  Xrotation Yrotation Zrotation
		JOINT left_knee
		{
			OFFSET	-28.2	-396.7	2.2
			CHANNELS 3  Xrotation Yrotation Zrotation
			JOINT left_ankle
			{
				OFFSET	-11.7	-411.3	35.4
				CHANNELS 3  Xrotation Yrotation Zrotation
				JOINT left_toes
				{
					OFFSET	0	-60	-88.6
					CHANNELS 3  Xrotation Yrotation Zrotation
					JOINT left_foot_ee
					{
						OFFSET	-22.5	-16.5	-42.2
						CHANNELS 3  Xrotation Yrotation Zrotation
						End Site
						{
							OFFSET	1	0	0
						}
					}
				}
			}
		}
	}
	JOINT right_hip
	{
		OFFSET	82.8	-127.5	0.300001
		CHANNELS 3  Xrotation Yrotation Zrotation
		JOINT right_knee
		{
			OFFSET	28.2	-396.7	2.2
			CHANNELS 3  Xrotation Yrotation Zrotation
			JOINT right_ankle
			{
				OFFSET	11.7	-411.3	35.4
				CHANNELS 3  Xrotation Yrotation Zrotation
				JOINT right_toes
				{
					OFFSET	0	-60	-88.6
					CHANNELS 3  Xrotation Yrotation Zrotation
					JOINT right_foot_ee
					{
						OFFSET	22.5	-16.5	-42.2
						CHANNELS 3  Xrotation Yrotation Zrotation
						End Site
						{
							OFFSET	1	0	0
						}
					}
				}
			}
		}
	}
}
MOTION
Frames: 14
Frame Time: 0.02
3550.94160204 734.033 -1493.68552768 -26.9573523825 73.0618476737 23.7062394597 3.51591 0.50772 1.23243 3.51665 0.428275 1.26223 3.52579 0.234633 1.31209 3.52366 0.438892 1.25858 -17.4118 9.01416 -1.09169 -17.7877 17.9215 2.41631 -0.0 0.0 -0.0 -3.62527 23.503 -2.24794 -33.235 -58.182 47.2489 0.969695 -25.6572 0.220823 -69.3702 -6.46567 5.29616 -2.05646 12.6444 -7.77627 -0.0 0.0 -0.0 9.623 -22.374 -16.4643 -41.5442 58.3964 -43.0329 0.645084 17.7217 -0.100567 45.4888 0.665101 5.62233 -1.59738 -15.4067 3.57525 0.0 0.0 0.0 20.9609 -0.115491 -6.34361 -30.2345 0.0350114 4.5863 28.8242 6.31433 -3.76107 8.13617 -0.0 -0.0 -0.0 0.0 -0.0 8.24188 -10.951 -2.10901 -17.9499 -0.314406 -2.72539 38.0862 28.3033 5.61291 -23.3966 0.0 0.0 0.0 0.0 0.0 
3551.71953807 734.033 -1494.61054899 -23.9180217518 70.9884635863 20.5115552245 3.51591 0.50772 1.23243 3.51665 0.428275 1.26223 3.52579 0.234633 1.31209 3.52366 0.438892 1.25858 -17.4118 9.01416 -1.09169 -17.7877 17.9215 2.41631 -0.0 0.0 -0.0 -3.62527 23.503 -2.24794 -33.235 -58.182 47.2489 0.969695 -25.6572 0.220823 -69.3702 -6.46567 5.29616 -2.05646 12.6444 -7.77627 -0.0 0.0 -0.0 9.623 -22.374 -16.4643 -41.5442 58.3964 -43.0329 0.645084 17.7217 -0.100567 45.4888 0.665101 5.62233 -1.59738 -15.4067 3.57525 0.0 0.0 0.0 20.9609 -0.115491 -6.34361 -30.2345 0.0350114 4.5863 28.8242 6.31433 -3.76107 8.13617 -0.0 -0.0 -0.0 0.0 -0.0 8.24188 -10.951 -2.10901 -17.9499 -0.314406 -2.72539 38.0862 28.3033 5.61291 -23.3966 0.0 0.0 0.0 0.0 0.0 
3543.06461567 730.354 -1492.09005685 -29.3317398065 73.1404845032 25.4504895518 3.64483 0.499086 1.30722 3.64568 0.414901 1.33632 3.65498 0.213444 1.38286 3.65257 0.429143 1.33181 -15.7275 9.65681 -0.961733 -16.0831 19.055 2.49611 -0.0 0.0 -0.0 -4.49802 23.5126 -3.4519 -33.0855 -57.0104 49.7358 1.00357 -26.4333 0.235699 -69.9396 -6.53832 5.30171 -2.08046 18.5287 -5.03078 -0.0 0.0 -0.0 10.4499 -18.8597 -18.3885 -40.5926 59.7087 -41.4756 0.578686 15.9958 -0.0813083 45.0544 0.637928 5.57384 0.0971725 -6.12582 -3.19299 0.0 0.0 0.0 28.7123 -5.67363 -3.4448 -33.3445 -0.0985001 5.0448 25.8466 10.7014 -3.43709 7.89066 -0.0 -0.0 -0.0 0.0 -0.0 6.29704 -12.8968 -2.39978 -14.1525 -0.319457 -2.14288 37.9165 23.9451 5.34494 -18.5492 0.0 0.0 0.0 0.0 0.0 
3535.92183467 728.462 -1489.25317342 -32.5252092481 74.9934311698 28.8319213683 3.64002 0.544396 1.30439 3.64085 0.460299 1.33638 3.65122 0.258259 1.38963 3.64884 0.474464 1.33142 -15.6921 9.53475 -1.44505 -16.045 19.1001 1.99257 -0.0 0.0 -0.0 -4.59097 23.3788 -3.6138 -33.1434 -56.4523 50.5093 1.00228 -26.4038 0.235122 -70.4023 -6.59738 5.30569 -2.14195 20.649 -4.3485 -0.0 0.0 -0.0 10.6648 -17.7873 -18.9361 -40.3583 59.7392 -41.0475 0.558664 15.4694 -0.0758793 44.6852 0.615121 5.53247 0.540807 -4.35235 -5.39105 0.0 0.0 0.0 31.6133 -6.93312 -2.70338 -34.7417 -0.16656 5.24834 24.7428 10.8991 -3.30978 7.02675 -0.0 -0.0 -0.0 0.0 -0.0 4.95894 -12.8184 -2.63702 -11.3021 -0.297888 -1.70611 38.517 21.7238 5.29399 -17.8196 0.0 0.0 0.0 0.0 0.0 
3524.09361539 724.757 -1484.20495182 -45.2067098068 78.135456746 41.2675028357 3.7506 0.504255 1.50376 3.75176 0.407557 1.53279 3.7621 0.180176 1.57577 3.75889 0.42675 1.52756 -14.9755 8.51223 -1.99271 -15.2359 17.4578 0.988724 -0.0 0.0 -0.0 -4.82238 22.3706 -4.19148 -33.1997 -55.5575 52.628 0.941776 -25.01 0.208877 -70.6664 -6.6311 5.30774 -1.9291 23.8171 -1.56048 -0.0 0.0 -0.0 11.1577 -16.5662 -20.0009 -38.9283 59.3977 -40.601 0.539668 14.9674 -0.0708929 45.0197 0.63577 5.56995 1.40238 2.8817 -8.23401 0.0 0.0 0.0 34.8197 -8.92216 -1.6616 -34.2567 -0.14237 5.17787 21.7875 11.4937 -2.95903 6.25429 -0.0 -0.0 -0.0 0.0 -0.0 3.35548 -13.4348 -2.75609 -8.10869 -0.247958 -1.2187 39.3056 18.2344 5.21869 -15.8451 0.0 0.0 0.0 0.0 0.0 
3516.58222791 725.06 -1480.43256478 -52.2903868977 79.3402859038 48.2609194219 3.78732 0.428504 1.48093 3.78848 0.333411 1.50519 3.79665 0.111737 1.53761 3.79352 0.353143 1.50068 -14.9229 8.08795 -2.20828 -15.1573 16.7744 0.628839 -0.0 0.0 -0.0 -4.95562 22.3553 -4.38527 -32.8364 -55.3688 54.2935 0.93428 -24.835 0.205718 -70.5227 -6.61275 5.30664 -1.81298 24.7541 -0.454004 -0.0 0.0 -0.0 11.3368 -16.2179 -20.3785 -38.3234 59.288 -40.1942 0.534365 14.8268 -0.0695296 44.908 0.628849 5.55745 1.64404 5.1213 -8.94776 0.0 0.0 0.0 36.7552 -9.6023 -1.39383 -33.0371 -0.0841964 4.9998 20.8323 11.6153 -2.84233 4.88749 -0.0 -0.0 -0.0 0.0 -0.0 2.45896 -13.5708 -2.06621 -7.11587 -0.226907 -1.0678 39.5617 17.2491 5.20454 -15.169 0.0 0.0 0.0 0.0 0.0 
3509.8341698 723.026 -1478.42438256 -60.5552419964 80.1834392061 56.5584155916 3.92719 0.449057 1.42428 3.92825 0.357527 1.44996 3.93672 0.147244 1.4861 3.93384 0.380074 1.44421 -16.8775 7.88911 -2.10111 -17.1613 16.3223 0.95046 -0.0 0.0 -0.0 -5.11636 22.3432 -4.61787 -33.3557 -54.9857 54.807 0.953098 -25.2733 0.213687 -70.0628 -6.55404 5.30282 -1.68688 24.5215 0.149329 -0.0 0.0 -0.0 11.5335 -15.4995 -20.8599 -37.7067 59.2821 -39.6801 0.541632 15.0194 -0.0714008 44.8102 0.622813 5.54649 1.90953 8.07719 -9.50594 0.0 0.0 0.0 37.9444 -10.1604 -0.916355 -31.655 -0.0228729 4.79658 17.2983 11.9865 -2.39817 3.29852 -0.0 -0.0 -0.0 0.0 -0.0 1.44556 -14.1935 -2.35875 -5.35198 -0.183064 -0.800672 39.4895 16.833 5.18291 -14.4002 0.0 0.0 0.0 0.0 0.0 
3494.53711772 726.3 -1482.29428236 -71.0700690578 81.5444189632 67.4235688024 4.0027 0.330808 1.40907 4.00377 0.240485 1.42726 4.00914 0.0364221 1.44691 4.00632 0.264455 1.42301 -18.1741 8.84243 -0.787154 -18.5576 17.4326 2.75383 -0.0 0.0 -0.0 -4.96787 20.5016 -4.87763 -34.9211 -54.8307 56.1787 0.839066 -22.57 0.167436 -69.2737 -6.45336 5.29515 -0.926168 20.8075 2.89153 -0.0 0.0 -0.0 11.6012 -13.5305 -21.3345 -36.1905 59.6454 -40.21 0.567183 15.6937 -0.0781676 44.0473 0.576346 5.46064 2.25588 10.7398 -10.7147 0.0 0.0 0.0 34.8482 -10.5839 -1.33462 -17.4478 0.317289 2.6484 9.83585 12.7057 -1.4038 -1.81708 0.0 0.0 -0.0 0.0 -0.0 -0.300657 -14.433 -2.8955 -4.03705 -0.145038 -0.60246 38.3703 17.0562 5.08882 -13.3692 0.0 0.0 0.0 0.0 0.0 
3485.9713676 728.701 -1479.83906351 -68.1213863561 82.1367427183 64.5832381915 4.01425 0.304251 1.19504 4.01502 0.227596 1.21198 4.01939 0.0542971 1.23196 4.01735 0.248167 1.20793 -19.2685 9.98228 -0.580054 -19.8062 19.5254 3.62352 -0.0 0.0 -0.0 -5.31158 20.3253 -5.43476 -33.4105 -54.9762 60.7906 0.808236 -21.8199 0.15579 -69.1477 -6.4373 5.29379 -0.720458 17.5117 2.72859 -0.0 0.0 -0.0 11.6175 -12.4646 -21.545 -35.1794 59.9502 -40.5931 0.574124 15.8761 -0.0800556 44.6098 0.610497 5.524 1.93343 11.6556 -8.10595 0.0 0.0 0.0 34.7211 -9.80435 -1.82751 -9.38691 0.271204 1.41346 4.74603 13.4684 -0.688844 -4.7586 0.0 0.0 -0.0 0.0 -0.0 -2.5748 -13.3681 -2.56831 -3.69802 -0.134496 -0.551496 37.0712 18.0914 5.00401 -11.1762 0.0 0.0 0.0 0.0 0.0 
3485.95439091 728.701 -1479.53615362 -69.4518771834 82.2077416145 65.9262417749 4.01425 0.304251 1.19504 4.01502 0.227596 1.21198 4.01939 0.0542971 1.23196 4.01735 0.248167 1.20793 -19.2685 9.98228 -0.580054 -19.8062 19.5254 3.62352 -0.0 0.0 -0.0 -5.31158 20.3253 -5.43476 -33.4105 -54.9762 60.7906 0.808236 -21.8199 0.15579 -69.1477 -6.4373 5.29379 -0.720458 17.5117 2.72859 -0.0 0.0 -0.0 11.6175 -12.4646 -21.545 -35.1794 59.9502 -40.5931 0.574124 15.8761 -0.0800556 44.6098 0.610497 5.524 1.93343 11.6556 -8.10595 0.0 0.0 0.0 34.7211 -9.80435 -1.82751 -9.38691 0.271204 1.41346 4.74603 13.4684 -0.688844 -4.7586 0.0 0.0 -0.0 0.0 -0.0 -2.5748 -13.3681 -2.56831 -3.69802 -0.134496 -0.551496 37.0712 18.0914 5.00401 -11.1762 0.0 0.0 0.0 0.0 0.0 
3475.94553832 725.052 -1480.94834365 -74.1894238999 82.7878171795 70.9062193571 3.99891 0.257724 1.18599 3.99968 0.18174 1.19998 4.00305 0.0102356 1.21362 4.00105 0.201762 1.19678 -19.1018 10.4277 -0.997424 -19.6942 20.5976 3.40592 -0.0 0.0 -0.0 -5.58248 20.1563 -5.88575 -33.4753 -55.1043 61.0973 0.782469 -21.1869 0.146344 -67.369 -6.21081 5.27089 -0.385182 15.2007 3.8273 -0.0 0.0 -0.0 11.6838 -11.6081 -21.8097 -34.5795 60.2448 -40.8859 0.579413 16.0149 -0.0815087 44.086 0.578677 5.46501 1.70954 10.9732 -6.88431 0.0 0.0 0.0 34.8584 -9.20067 -2.3104 -3.36129 0.123728 0.500941 1.28633 15.2062 -0.189 -8.04043 0.0 0.0 -0.0 0.0 -0.0 -3.38297 -13.3149 -2.52609 -5.18841 -0.178582 -0.77597 37.0831 19.645 5.06595 -9.98614 0.0 0.0 0.0 0.0 0.0 
3475.88014229 725.052 -1479.80777935 -79.3493136478 82.9398040865 76.106331718 3.99891 0.257724 1.18599 3.99968 0.18174 1.19998 4.00305 0.0102356 1.21362 4.00105 0.201762 1.19678 -19.1018 10.4277 -0.997424 -19.6942 20.5976 3.40592 -0.0 0.0 -0.0 -5.58248 20.1563 -5.88575 -33.4753 -55.1043 61.0973 0.782469 -21.1869 0.146344 -67.369 -6.21081 5.27089 -0.385182 15.2007 3.8273 -0.0 0.0 -0.0 11.6838 -11.6081 -21.8097 -34.5795 60.2448 -40.8859 0.579413 16.0149 -0.0815087 44.086 0.578677 5.46501 1.70954 10.9732 -6.88431 0.0 0.0 0.0 34.8584 -9.20067 -2.3104 -3.36129 0.123728 0.500941 1.28633 15.2062 -0.189 -8.04043 0.0 0.0 -0.0 0.0 -0.0 -3.38297 -13.3149 -2.52609 -5.18841 -0.178582 -0.77597 37.0831 19.645 5.06595 -9.98614 0.0 0.0 0.0 0.0 0.0 
3472.2461465 725.005 -1473.30200093 -75.6366133704 82.6144388245 72.8522552846 3.7545 0.24032 1.12038 3.75518 0.168544 1.1334 3.75817 0.00168648 1.14586 3.75638 0.182621 1.13122 -19.1204 11.3382 -1.44598 -19.8405 22.5812 3.4077 -0.0 0.0 -0.0 -5.6532 18.6897 -6.39346 -32.0686 -54.9678 63.9683 0.782497 -21.1875 0.146355 -66.1141 -6.05143 5.25049 -0.0441903 11.822 4.59655 -0.0 0.0 -0.0 11.3763 -11.8319 -21.194 -32.067 61.4064 -41.2041 0.648405 17.8072 -0.10158 43.5559 0.547021 5.40501 1.79871 14.7769 -5.80124 0.0 0.0 0.0 34.7404 -8.87606 -2.52861 -0.635528 0.0256467 0.0941566 0.108847 15.7532 -0.0160563 -9.77025 0.0 0.0 -0.0 0.0 -0.0 -3.24718 -13.6717 -2.63571 -5.71079 -0.192649 -0.854903 37.1224 19.716 5.07267 -8.93413 0.0 0.0 0.0 0.0 0.0 
3408.03024863 714.403 -1439.02198396 -91.753049099 80.7538310929 89.3077574571 3.86953 0.27614 1.04195 3.87011 0.209282 1.05741 3.87366 0.0552351 1.0765 3.87211 0.224546 1.05427 -19.4278 9.6117 0.552201 -19.8975 18.2309 4.52956 -0.0 0.0 -0.0 -3.55824 13.448 -4.27955 -30.0911 -54.1359 70.7737 0.574012 -15.8732 0.0800252 -61.3815 -5.45505 5.14211 -0.351974 4.2745 -0.527756 -0.0 0.0 -0.0 10.8832 -14.3939 -19.8855 -24.4959 60.6421 -43.295 0.981712 25.9337 -0.226053 41.5768 0.433806 5.17856 1.43311 10.9447 -5.02262 0.0 0.0 0.0 36.7599 -8.40243 -1.91915 4.60178 -0.216668 -0.672604 -2.09867 11.3462 0.308971 -18.7212 0.0 0.0 -0.0 0.0 -0.0 -2.38913 -11.4285 0.0540235 -12.3572 -0.308405 -1.86766 37.2369 16.9726 4.9792 -7.10897 0.0 0.0 0.0 0.0 0.0 
